osim_states
version=1
nRows=4
nColumns=185
inDegrees=yes

# SIMM Motion File Header:
name osim_states
datacolumns 185
datarows 4
otherdata 1
range 0.11397670 0.11459463
endheader
time	platform_rx	platform_ry	platform_rz	platform_ty	pelvis_tilt	pelvis_list	pelvis_rotation	pelvis_tx	pelvis_ty	pelvis_tz	hip_flexion_r	hip_adduction_r	hip_rotation_r	knee_angle_r	patella_r_constrained_knee_angle	ankle_angle_r	subtalar_angle_r	mtp_angle_r	hip_flexion_l	hip_adduction_l	hip_rotation_l	knee_angle_l	patella_l_constrained_knee_angle	ankle_angle_l	subtalar_angle_l	mtp_angle_l	lumbar_extension	lumbar_bending	lumbar_rotation	arm_flex_r	arm_add_r	arm_rot_r	elbow_flex_r	pro_sup_r	wrist_flex_r	wrist_dev_r	arm_flex_l	arm_add_l	arm_rot_l	elbow_flex_l	pro_sup_l	wrist_flex_l	wrist_dev_l	platform_rx_u	platform_ry_u	platform_rz_u	platform_ty_u	pelvis_tilt_u	pelvis_list_u	pelvis_rotation_u	pelvis_tx_u	pelvis_ty_u	pelvis_tz_u	hip_flexion_r_u	hip_adduction_r_u	hip_rotation_r_u	knee_angle_r_u	patella_r_constrained_knee_angle_u	ankle_angle_r_u	subtalar_angle_r_u	mtp_angle_r_u	hip_flexion_l_u	hip_adduction_l_u	hip_rotation_l_u	knee_angle_l_u	patella_l_constrained_knee_angle_u	ankle_angle_l_u	subtalar_angle_l_u	mtp_angle_l_u	lumbar_extension_u	lumbar_bending_u	lumbar_rotation_u	arm_flex_r_u	arm_add_r_u	arm_rot_r_u	elbow_flex_r_u	pro_sup_r_u	wrist_flex_r_u	wrist_dev_r_u	arm_flex_l_u	arm_add_l_u	arm_rot_l_u	elbow_flex_l_u	pro_sup_l_u	wrist_flex_l_u	wrist_dev_l_u	glut_med1_r.activation	glut_med1_r.fiber_length	glut_med2_r.activation	glut_med2_r.fiber_length	glut_med3_r.activation	glut_med3_r.fiber_length	glut_min1_r.activation	glut_min1_r.fiber_length	glut_min2_r.activation	glut_min2_r.fiber_length	glut_min3_r.activation	glut_min3_r.fiber_length	semimem_r.activation	semimem_r.fiber_length	semiten_r.activation	semiten_r.fiber_length	bifemlh_r.activation	bifemlh_r.fiber_length	bifemsh_r.activation	bifemsh_r.fiber_length	sar_r.activation	sar_r.fiber_length	add_long_r.activation	add_long_r.fiber_length	add_brev_r.activation	add_brev_r.fiber_length	add_mag1_r.activation	add_mag1_r.fiber_length	add_mag2_r.activation	add_mag2_r.fiber_length	add_mag3_r.activation	add_mag3_r.fiber_length	tfl_r.activation	tfl_r.fiber_length	pect_r.activation	pect_r.fiber_length	grac_r.activation	grac_r.fiber_length	glut_max1_r.activation	glut_max1_r.fiber_length	glut_max2_r.activation	glut_max2_r.fiber_length	glut_max3_r.activation	glut_max3_r.fiber_length	iliacus_r.activation	iliacus_r.fiber_length	psoas_r.activation	psoas_r.fiber_length	quad_fem_r.activation	quad_fem_r.fiber_length	gem_r.activation	gem_r.fiber_length	peri_r.activation	peri_r.fiber_length	rect_fem_r.activation	rect_fem_r.fiber_length	vas_med_r.activation	vas_med_r.fiber_length	vas_int_r.activation	vas_int_r.fiber_length	vas_lat_r.activation	vas_lat_r.fiber_length	med_gas_r.activation	med_gas_r.fiber_length	lat_gas_r.activation	lat_gas_r.fiber_length	soleus_r.activation	soleus_r.fiber_length	tib_post_r.activation	tib_post_r.fiber_length	flex_dig_r.activation	flex_dig_r.fiber_length	flex_hal_r.activation	flex_hal_r.fiber_length	tib_ant_r.activation	tib_ant_r.fiber_length	per_brev_r.activation	per_brev_r.fiber_length	per_long_r.activation	per_long_r.fiber_length	per_tert_r.activation	per_tert_r.fiber_length	ext_dig_r.activation	ext_dig_r.fiber_length	ext_hal_r.activation	ext_hal_r.fiber_length	ercspn_r.activation	ercspn_r.fiber_length	ercspn_l.activation	ercspn_l.fiber_length	intobl_r.activation	intobl_r.fiber_length	intobl_l.activation	intobl_l.fiber_length	extobl_r.activation	extobl_r.fiber_length	extobl_l.activation	extobl_l.fiber_length
      0.11397670	     30.00000000	     -0.00000000	     -0.00000000	      0.00000000	    -16.65704784	      2.61792604	      6.42936441	     -0.40415394	      0.75540527	      0.37290798	     77.69011360	     -0.32710010	     -0.82080043	    -99.30730098	    -99.30730098	     22.82276999	     18.05168749	      0.00001318	     52.13915936	     -0.00000000	     -9.99811353	   -101.98648811	   -101.98648811	      6.49999992	     -0.00000000	     -0.00000000	    -12.20194036	     -3.76465856	      0.15888175	     -0.00000000	     -8.91003344	      0.00000000	     72.06682857	     46.23690339	      0.00000000	      4.87402477	     -0.00000000	     -8.91003344	     -0.00000000	     72.06682857	     46.23690339	     -0.00000000	      4.87402477	     -0.00000000	     -0.00000000	     -0.00000000	      0.00000000	    -26.95158417	    -60.33384424	    -99.34133818	      0.32301696	     -3.40367601	      0.34587087	    549.96469655	     89.15102960	    -35.00518989	   -731.08384257	   -731.08384257	   -222.46016177	    196.03795992	      0.00000000	      0.00000000	     -0.00000000	     -0.00000000	     -0.00000000	      0.00000000	      0.00000000	     -0.00000000	     -0.00000000	    -16.54239741	     61.24849271	    124.10487214	     -0.00000000	     -0.00000000	      0.00000000	     -0.00000000	     -0.00000000	      0.00000000	     -0.00000000	     -0.00000000	      0.00000000	     -0.00000000	      0.00000000	      0.00000000	     -0.00000000	     -0.00000000	      0.02554786	      0.04788094	      0.16399647	      0.09896927	      0.43689364	      0.08901324	      0.02639104	      0.06481545	      0.03564403	      0.05848285	      0.18730793	      0.04334815	      0.08738169	      0.06473505	      0.41795777	      0.23012681	      0.39433007	      0.12116514	      0.10855968	      0.13750337	      0.01846254	      0.38419369	      0.01846516	      0.09266887	      0.04120930	      0.13084426	      0.28977847	      0.09626195	      0.27879638	      0.13319020	      0.31259711	      0.17138500	      0.01871612	      0.06836877	      0.01847088	      0.05484559	      0.01846190	      0.32583064	      0.19206228	      0.12055399	      0.22922133	      0.14052052	      0.31826454	      0.17899580	      0.01846196	      0.06530517	      0.01846429	      0.05853864	      0.65663323	      0.07554406	      0.53516456	      0.03146381	      0.59553580	      0.03220217	      0.25854827	      0.11399049	      0.67902814	      0.11640921	      0.73471360	      0.11819500	      0.69840903	      0.11119366	      0.38023122	      0.04851967	      0.39056495	      0.05243164	      0.74694261	      0.05952013	      0.01000000	      0.03633871	      0.01000000	      0.03406642	      0.01000000	      0.04468406	      0.11235707	      0.06341457	      0.01000000	      0.06299882	      0.01000000	      0.06327072	      0.01000000	      0.07875124	      0.01000000	      0.08959608	      0.01000000	      0.09319078	      0.11873168	      0.13172011	      0.10274059	      0.12679186	      0.01891265	      0.09506572	      0.02487858	      0.08174607	      0.09598156	      0.12295622	      0.09562746	      0.11420358
      0.11422685	     30.00000000	     -0.00000000	     -0.00000000	      0.00000000	    -16.66378732	      2.60281967	      6.40456595	     -0.40407306	      0.75455351	      0.37299443	     77.82771777	     -0.30487107	     -0.82964154	    -99.49007203	    -99.49007203	     22.76693075	     18.10066780	      0.00001318	     52.13915936	     -0.00000000	     -9.99811353	   -101.98648811	   -101.98648811	      6.49999992	     -0.00000000	     -0.00000000	    -12.20607716	     -3.74931592	      0.18987750	     -0.00000000	     -8.91003344	      0.00000000	     72.06682857	     46.23690339	      0.00000000	      4.87402477	     -0.00000000	     -8.91003344	     -0.00000000	     72.06682857	     46.23690339	     -0.00000000	      4.87402477	     -0.00000000	     -0.00000000	     -0.00000000	      0.00000000	    -26.93282635	    -60.44667432	    -98.93029629	      0.32367869	     -3.40641221	      0.34535991	    550.22663345	     88.57677607	    -35.68259891	   -730.23145000	   -730.23145000	   -223.99175642	    195.57361683	      0.00000000	      0.00000000	     -0.00000000	     -0.00000000	     -0.00000000	      0.00000000	      0.00000000	     -0.00000000	     -0.00000000	    -16.53258294	     61.42116803	    123.71616437	     -0.00000000	     -0.00000000	      0.00000000	     -0.00000000	     -0.00000000	      0.00000000	     -0.00000000	     -0.00000000	      0.00000000	     -0.00000000	      0.00000000	      0.00000000	     -0.00000000	     -0.00000000	      0.02549561	      0.04786269	      0.16367052	      0.09898827	      0.43678121	      0.08905823	      0.02633583	      0.06479818	      0.03555544	      0.05847581	      0.18687153	      0.04335796	      0.08707702	      0.06472712	      0.41785966	      0.23013137	      0.39503055	      0.12121550	      0.10815217	      0.13744892	      0.01843467	      0.38395109	      0.01843727	      0.09266053	      0.04177525	      0.13086389	      0.29037303	      0.09633666	      0.27912528	      0.13328939	      0.31276990	      0.17149175	      0.01868739	      0.06830127	      0.01844297	      0.05482618	      0.01843402	      0.32582314	      0.19174357	      0.12060112	      0.22890565	      0.14058631	      0.31810540	      0.17909293	      0.01843408	      0.06523781	      0.01843640	      0.05847182	      0.65737264	      0.07562098	      0.53534523	      0.03149309	      0.59523504	      0.03223575	      0.25848131	      0.11398510	      0.67987722	      0.11649089	      0.73556314	      0.11827400	      0.69928702	      0.11127300	      0.37938958	      0.04846113	      0.38973275	      0.05237180	      0.74689111	      0.05950574	      0.01000000	      0.03632255	      0.01000000	      0.03404319	      0.01000000	      0.04466039	      0.11195693	      0.06339342	      0.01000000	      0.06301854	      0.01000000	      0.06328401	      0.01000000	      0.07879786	      0.01000000	      0.08964778	      0.01000000	      0.09323074	      0.11865215	      0.13170857	      0.10295167	      0.12681102	      0.01888325	      0.09505895	      0.02482868	      0.08174567	      0.09567973	      0.12291619	      0.09565989	      0.11423568
      0.11441074	     30.00000000	     -0.00000000	     -0.00000000	      0.00000000	    -16.66873874	      2.59169644	      6.38640149	     -0.40401349	      0.75392692	      0.37305791	     77.92891700	     -0.28862166	     -0.83624907	    -99.62429705	    -99.62429705	     22.72563766	     18.13659984	      0.00001318	     52.13915936	     -0.00000000	     -9.99811353	   -101.98648811	   -101.98648811	      6.49999992	     -0.00000000	     -0.00000000	    -12.20911666	     -3.73800943	      0.21260136	     -0.00000000	     -8.91003344	      0.00000000	     72.06682857	     46.23690339	      0.00000000	      4.87402477	     -0.00000000	     -8.91003344	     -0.00000000	     72.06682857	     46.23690339	     -0.00000000	      4.87402477	     -0.00000000	     -0.00000000	     -0.00000000	      0.00000000	    -26.91899574	    -60.52998829	    -98.62674701	      0.32416727	     -3.40842415	      0.34498353	    550.41959307	     88.15191984	    -36.18121383	   -729.60423743	   -729.60423743	   -225.11252802	    195.22321944	      0.00000000	      0.00000000	     -0.00000000	     -0.00000000	     -0.00000000	      0.00000000	      0.00000000	     -0.00000000	     -0.00000000	    -16.52516062	     61.54868566	    123.42903579	     -0.00000000	     -0.00000000	      0.00000000	     -0.00000000	     -0.00000000	      0.00000000	     -0.00000000	     -0.00000000	      0.00000000	     -0.00000000	      0.00000000	      0.00000000	     -0.00000000	     -0.00000000	      0.02545732	      0.04784923	      0.16343104	      0.09900217	      0.43669780	      0.08909123	      0.02629536	      0.06478549	      0.03549052	      0.05847062	      0.18655062	      0.04336514	      0.08685395	      0.06472142	      0.41778901	      0.23013492	      0.39554646	      0.12125265	      0.10785390	      0.13740914	      0.01841423	      0.38377276	      0.01841683	      0.09265465	      0.04219450	      0.13087847	      0.29081101	      0.09639169	      0.27936759	      0.13336239	      0.31289949	      0.17157018	      0.01866633	      0.06825165	      0.01842252	      0.05481208	      0.01841359	      0.32581802	      0.19150881	      0.12063565	      0.22867304	      0.14063455	      0.31798917	      0.17916422	      0.01841364	      0.06518829	      0.01841596	      0.05842270	      0.65820502	      0.07568011	      0.53547688	      0.03151459	      0.59501371	      0.03226039	      0.25843211	      0.11398104	      0.68049965	      0.11655079	      0.73618625	      0.11833195	      0.69993064	      0.11133118	      0.37876981	      0.04841804	      0.38912005	      0.05232776	      0.74685121	      0.05949496	      0.01000000	      0.03631064	      0.01000000	      0.03402606	      0.01000000	      0.04464290	      0.11166375	      0.06337888	      0.01000000	      0.06303298	      0.01000000	      0.06329373	      0.01000000	      0.07883228	      0.01000000	      0.08968594	      0.01000000	      0.09326028	      0.11859359	      0.13170008	      0.10310675	      0.12682511	      0.01886170	      0.09505390	      0.02479210	      0.08174546	      0.09545772	      0.12288678	      0.09568331	      0.11425929
      0.11459463	     30.00000000	     -0.00000000	     -0.00000000	      0.00000000	    -16.67368762	      2.58055786	      6.36829296	     -0.40395384	      0.75329996	      0.37312131	     78.03015175	     -0.27245059	     -0.84294835	    -99.75840669	    -99.75840669	     22.68413886	     18.17246675	      0.00001318	     52.13915936	     -0.00000000	     -9.99811353	   -101.98648811	   -101.98648811	      6.49999992	     -0.00000000	     -0.00000000	    -12.21215479	     -3.72667944	      0.23527230	     -0.00000000	     -8.91003344	      0.00000000	     72.06682857	     46.23690339	      0.00000000	      4.87402477	     -0.00000000	     -8.91003344	     -0.00000000	     72.06682857	     46.23690339	     -0.00000000	      4.87402477	     -0.00000000	     -0.00000000	     -0.00000000	      0.00000000	    -26.90513032	    -60.61361550	    -98.32202896	      0.32465764	     -3.41043648	      0.34460650	    550.61288390	     87.72477414	    -36.68037675	   -728.97653088	   -728.97653088	   -226.22907692	    194.86513771	      0.00000000	      0.00000000	     -0.00000000	     -0.00000000	     -0.00000000	      0.00000000	      0.00000000	     -0.00000000	     -0.00000000	    -16.51756127	     61.67669400	    123.14074115	     -0.00000000	     -0.00000000	      0.00000000	     -0.00000000	     -0.00000000	      0.00000000	     -0.00000000	     -0.00000000	      0.00000000	     -0.00000000	      0.00000000	      0.00000000	     -0.00000000	     -0.00000000	      0.02541912	      0.04783574	      0.16319168	      0.09901601	      0.43661377	      0.08912415	      0.02625500	      0.06477281	      0.03542577	      0.05846542	      0.18622964	      0.04337229	      0.08663164	      0.06471582	      0.41771961	      0.23013863	      0.39606319	      0.12128992	      0.10755675	      0.13736955	      0.01839385	      0.38359444	      0.01839644	      0.09264898	      0.04261617	      0.13089320	      0.29124952	      0.09644681	      0.27961040	      0.13343546	      0.31303123	      0.17164856	      0.01864532	      0.06820204	      0.01840211	      0.05479812	      0.01839321	      0.32581323	      0.19127363	      0.12067008	      0.22843998	      0.14068268	      0.31787359	      0.17923541	      0.01839326	      0.06513878	      0.01839557	      0.05837359	      0.65879723	      0.07573721	      0.53560744	      0.03153606	      0.59479216	      0.03228498	      0.25838295	      0.11397689	      0.68112057	      0.11661055	      0.73680816	      0.11838978	      0.70057270	      0.11138924	      0.37814914	      0.04837491	      0.38850657	      0.05228370	      0.74680955	      0.05948400	      0.01000000	      0.03629871	      0.01000000	      0.03400892	      0.01000000	      0.04462533	      0.11137142	      0.06336516	      0.01000000	      0.06304738	      0.01000000	      0.06330340	      0.01000000	      0.07886683	      0.01000000	      0.08972425	      0.01000000	      0.09328995	      0.11853497	      0.13169158	      0.10326176	      0.12683921	      0.01884020	      0.09504877	      0.02475562	      0.08174532	      0.09523561	      0.12285739	      0.09570638	      0.11428289
